<?xml version="1.0" encoding="UTF-8" standalone="no"?>
<svg width="210px" height="140px" viewBox="0 0 210 140" version="1.1" xmlns="http://www.w3.org/2000/svg" xmlns:xlink="http://www.w3.org/1999/xlink" xmlns:sketch="http://www.bohemiancoding.com/sketch/ns">
    <!-- Generator: Sketch 3.0.3 (7891) - http://www.bohemiancoding.com/sketch -->
    <title>Artboard 2</title>
    <desc>Created with Sketch.</desc>
    <defs></defs>
    <g id="Page-1" stroke="none" stroke-width="1" fill="none" fill-rule="evenodd" sketch:type="MSPage">
        <g id="Artboard-2" sketch:type="MSArtboardGroup" transform="translate(-1109.000000, -417.000000)" fill="#FFFFFF">
            <g id="Group" sketch:type="MSLayerGroup" transform="translate(1089.000000, 412.000000)">
                <g id="Rectangle-3-+-Rectangle-4-+-Rectangle-98" transform="translate(120.000000, 60.000000)" sketch:type="MSShapeGroup">
                    <path d="M29,44 L36.0710678,78.9289322 L71,86 L63.9289322,51.0710678 L29,44 Z" id="Rectangle-3" fill-opacity="0.300000012" transform="translate(50.000000, 65.000000) rotate(-45.000000) translate(-50.000000, -65.000000) "></path>
                    <path d="M47.6507576,31.6005051 L54.7218254,66.5294373 L82.7212503,38.4908249 L75.508622,3.31623382 L47.6507576,31.6005051 Z" id="Rectangle-4" fill-opacity="0.200000003" transform="translate(65.150758, 35.100505) rotate(-45.000000) translate(-65.150758, -35.100505) "></path>
                    <path d="M17.6482323,31.3482445 L24.0491385,66.2420118 L52.5771645,37.9929054 L45.7200162,3.06397324 L17.6482323,31.3482445 Z" id="Rectangle-5" fill-opacity="0.100000001" transform="translate(35.148232, 34.848244) scale(1, -1) rotate(-45.000000) translate(-35.148232, -34.848244) "></path>
                </g>
                <g id="Rectangle-3-+-Rectangle-4-+-Rectangle-86" transform="translate(60.000000, 60.000000)" sketch:type="MSShapeGroup">
                    <path d="M29,44 L36.0710678,78.9289322 L71,86 L63.9289322,51.0710678 L29,44 Z" id="Rectangle-3" fill-opacity="0.300000012" transform="translate(50.000000, 65.000000) rotate(-45.000000) translate(-50.000000, -65.000000) "></path>
                    <path d="M47.6507576,31.6005051 L54.7218254,66.5294373 L82.7212503,38.4908249 L75.508622,3.31623382 L47.6507576,31.6005051 Z" id="Rectangle-4" fill-opacity="0.200000003" transform="translate(65.150758, 35.100505) rotate(-45.000000) translate(-65.150758, -35.100505) "></path>
                    <path d="M17.6482323,31.3482445 L24.0491385,66.2420118 L52.5771645,37.9929054 L45.7200162,3.06397324 L17.6482323,31.3482445 Z" id="Rectangle-5" fill-opacity="0.100000001" transform="translate(35.148232, 34.848244) scale(1, -1) rotate(-45.000000) translate(-35.148232, -34.848244) "></path>
                </g>
                <g id="Rectangle-3-+-Rectangle-4-+-Rectangle-87" transform="translate(0.000000, 60.000000)" sketch:type="MSShapeGroup">
                    <path d="M29,44 L36.0710678,78.9289322 L71,86 L63.9289322,51.0710678 L29,44 Z" id="Rectangle-3" fill-opacity="0.300000012" transform="translate(50.000000, 65.000000) rotate(-45.000000) translate(-50.000000, -65.000000) "></path>
                    <path d="M47.6507576,31.6005051 L54.7218254,66.5294373 L82.7212503,38.4908249 L75.508622,3.31623382 L47.6507576,31.6005051 Z" id="Rectangle-4" fill-opacity="0.200000003" transform="translate(65.150758, 35.100505) rotate(-45.000000) translate(-65.150758, -35.100505) "></path>
                    <path d="M17.6482323,31.3482445 L24.0491385,66.2420118 L52.5771645,37.9929054 L45.7200162,3.06397324 L17.6482323,31.3482445 Z" id="Rectangle-5" fill-opacity="0.100000001" transform="translate(35.148232, 34.848244) scale(1, -1) rotate(-45.000000) translate(-35.148232, -34.848244) "></path>
                </g>
                <g id="Rectangle-3-+-Rectangle-4-+-Rectangle-95" transform="translate(150.000000, 0.000000)" sketch:type="MSShapeGroup">
                    <path d="M29,44 L36.0710678,78.9289322 L71,86 L63.9289322,51.0710678 L29,44 Z" id="Rectangle-3" fill-opacity="0.300000012" transform="translate(50.000000, 65.000000) rotate(-45.000000) translate(-50.000000, -65.000000) "></path>
                    <path d="M47.6507576,31.6005051 L54.7218254,66.5294373 L82.7212503,38.4908249 L75.508622,3.31623382 L47.6507576,31.6005051 Z" id="Rectangle-4" fill-opacity="0.200000003" transform="translate(65.150758, 35.100505) rotate(-45.000000) translate(-65.150758, -35.100505) "></path>
                    <path d="M17.6482323,31.3482445 L24.0491385,66.2420118 L52.5771645,37.9929054 L45.7200162,3.06397324 L17.6482323,31.3482445 Z" id="Rectangle-5" fill-opacity="0.100000001" transform="translate(35.148232, 34.848244) scale(1, -1) rotate(-45.000000) translate(-35.148232, -34.848244) "></path>
                </g>
                <g id="Rectangle-3-+-Rectangle-4-+-Rectangle-96" transform="translate(90.000000, 0.000000)" sketch:type="MSShapeGroup">
                    <path d="M29,44 L36.0710678,78.9289322 L71,86 L63.9289322,51.0710678 L29,44 Z" id="Rectangle-3" fill-opacity="0.300000012" transform="translate(50.000000, 65.000000) rotate(-45.000000) translate(-50.000000, -65.000000) "></path>
                    <path d="M47.6507576,31.6005051 L54.7218254,66.5294373 L82.7212503,38.4908249 L75.508622,3.31623382 L47.6507576,31.6005051 Z" id="Rectangle-4" fill-opacity="0.200000003" transform="translate(65.150758, 35.100505) rotate(-45.000000) translate(-65.150758, -35.100505) "></path>
                    <path d="M17.6482323,31.3482445 L24.0491385,66.2420118 L52.5771645,37.9929054 L45.7200162,3.06397324 L17.6482323,31.3482445 Z" id="Rectangle-5" fill-opacity="0.100000001" transform="translate(35.148232, 34.848244) scale(1, -1) rotate(-45.000000) translate(-35.148232, -34.848244) "></path>
                </g>
                <g id="Rectangle-3-+-Rectangle-4-+-Rectangle-97" transform="translate(30.000000, 0.000000)" sketch:type="MSShapeGroup">
                    <path d="M29,44 L36.0710678,78.9289322 L71,86 L63.9289322,51.0710678 L29,44 Z" id="Rectangle-3" fill-opacity="0.300000012" transform="translate(50.000000, 65.000000) rotate(-45.000000) translate(-50.000000, -65.000000) "></path>
                    <path d="M47.6507576,31.6005051 L54.7218254,66.5294373 L82.7212503,38.4908249 L75.508622,3.31623382 L47.6507576,31.6005051 Z" id="Rectangle-4" fill-opacity="0.200000003" transform="translate(65.150758, 35.100505) rotate(-45.000000) translate(-65.150758, -35.100505) "></path>
                    <path d="M17.6482323,31.3482445 L24.0491385,66.2420118 L52.5771645,37.9929054 L45.7200162,3.06397324 L17.6482323,31.3482445 Z" id="Rectangle-5" fill-opacity="0.100000001" transform="translate(35.148232, 34.848244) scale(1, -1) rotate(-45.000000) translate(-35.148232, -34.848244) "></path>
                </g>
            </g>
        </g>
    </g>
</svg>