<?xml version="1.0" encoding="utf-8"?>
<!-- Generator: Adobe Illustrator 16.0.4, SVG Export Plug-In . SVG Version: 6.00 Build 0)  -->
<!DOCTYPE svg PUBLIC "-//W3C//DTD SVG 1.1//EN" "http://www.w3.org/Graphics/SVG/1.1/DTD/svg11.dtd">
<svg version="1.1" id="Layer_2" xmlns="http://www.w3.org/2000/svg" xmlns:xlink="http://www.w3.org/1999/xlink" x="0px" y="0px"
	 width="359px" height="104px" viewBox="0 0 359 104" enable-background="new 0 0 359 104" xml:space="preserve">
<g opacity="0.7">
	<path fill="#0A0A0A" d="M78.083,11.265c0,0.597-0.223,1.437-0.668,2.516c-0.445,1.08-1.073,2.135-1.881,3.166
		c-0.81,1.03-1.783,1.927-2.921,2.691c-1.139,0.765-2.401,1.146-3.787,1.146c-0.33,0-0.743-0.023-1.237-0.074
		c-0.495-0.049-0.984-0.174-1.46-0.374c-0.479-0.2-0.883-0.48-1.214-0.846c-0.329-0.366-0.494-0.848-0.494-1.446
		c0-0.298,0.149-0.722,0.445-1.271c0.298-0.548,0.62-1.138,0.966-1.769c0.346-0.631,0.667-1.247,0.965-1.844
		c0.298-0.598,0.445-1.097,0.445-1.496c0-1.129-0.792-1.951-2.376-2.467c-1.583-0.515-4.24-0.772-7.97-0.772
		c-3.73,0.133-7.096,0.357-10.099,0.673c-3.003,0.317-5.775,0.714-8.317,1.197c-2.542,0.481-4.917,1.038-7.128,1.667
		c-2.212,0.633-4.39,1.305-6.535,2.019c-2.146,0.716-4.315,1.479-6.51,2.293c-2.195,0.814-4.53,1.638-7.004,2.467
		c-0.231,0.067-0.454,0.133-0.669,0.199c-0.215,0.067-0.404,0.1-0.569,0.1c-0.529,0-1.007-0.117-1.436-0.35
		c-0.429-0.231-0.801-0.547-1.114-0.946c-0.314-0.399-0.561-0.848-0.743-1.346c-0.181-0.499-0.272-1.014-0.272-1.545
		c0-0.865,0.693-1.837,2.08-2.917c1.386-1.079,3.284-2.168,5.693-3.264c2.409-1.098,5.248-2.169,8.515-3.215
		c3.267-1.046,6.79-1.977,10.569-2.792c3.778-0.813,7.724-1.461,11.832-1.943C49.296,0.241,53.397,0,57.489,0
		c3.531,0,6.584,0.282,9.158,0.847c2.574,0.565,4.703,1.346,6.386,2.343c1.684,0.996,2.938,2.186,3.763,3.563
		C77.62,8.133,78.051,9.636,78.083,11.265z M20.212,69.578c-0.496,0.997-1.089,1.877-1.782,2.644
		c-0.693,0.763-1.436,1.395-2.228,1.893c-0.793,0.499-1.603,0.874-2.427,1.121c-0.825,0.249-1.601,0.375-2.326,0.375
		c-1.057,0-1.949-0.274-2.673-0.823c-0.727-0.547-1.089-1.354-1.089-2.418c0-0.365,0.042-0.772,0.123-1.219
		c0.083-0.451,0.256-0.941,0.52-1.472c2.508-5.214,5.007-10.233,7.5-15.053c2.493-4.815,4.901-9.32,7.228-13.506
		c2.327-4.188,4.53-8.001,6.61-11.439c2.079-3.438,3.967-6.38,5.668-8.822c1.7-2.441,3.151-4.328,4.356-5.657
		c1.204-1.328,2.086-1.994,2.649-1.994c1.155,0,2.013,0.332,2.574,0.997c0.56,0.666,0.841,1.446,0.841,2.343
		c0,0.73-0.181,1.462-0.544,2.193c-0.825,1.694-1.757,3.613-2.797,5.757s-2.138,4.418-3.293,6.829
		c-1.155,2.41-2.359,4.902-3.613,7.475c-1.255,2.578-2.494,5.136-3.713,7.675c-1.221,2.544-2.418,5.003-3.59,7.379
		c-1.17,2.375-2.26,4.574-3.266,6.603c-1.007,2.027-1.914,3.83-2.723,5.409C21.408,67.444,20.739,68.681,20.212,69.578z"/>
	<path fill="#0A0A0A" d="M51.795,47.549c1.023-2.292,1.865-4.146,2.525-5.559c0.661-1.41,1.263-2.506,1.807-3.289
		c0.544-0.779,1.089-1.303,1.634-1.57c0.544-0.266,1.23-0.398,2.055-0.398c1.253,0,2.333,0.407,3.242,1.222
		c0.908,0.814,1.362,1.852,1.362,3.114c0,0.299-0.042,0.599-0.124,0.898c-0.083,0.298-0.19,0.598-0.322,0.896l-8.416,20.038
		c-0.132,0.266-0.222,0.553-0.272,0.871c-0.048,0.317-0.074,0.573-0.074,0.772c0,0.434,0.09,0.756,0.272,0.971
		c0.18,0.219,0.371,0.326,0.569,0.326c0.363,0,0.733-0.084,1.114-0.249c0.379-0.166,0.824-0.457,1.336-0.873
		c0.512-0.417,1.14-0.98,1.882-1.696c0.742-0.713,1.658-1.618,2.747-2.714c1.022-1.098,2.08-2.418,3.168-3.963
		c1.09-1.547,2.153-3.174,3.193-4.885c1.04-1.709,2.005-3.438,2.895-5.185c0.893-1.743,1.666-3.363,2.328-4.859
		c0.494-0.995,0.94-1.801,1.336-2.417c0.396-0.615,0.784-1.088,1.163-1.42c0.379-0.331,0.767-0.556,1.164-0.673
		c0.396-0.116,0.858-0.174,1.387-0.174c2.012,0,3.019,0.881,3.019,2.642c-0.067,0.268-0.107,0.566-0.124,0.897
		c-0.017,0.332-0.107,0.714-0.273,1.146l-7.722,22.977c0,0.833,0.413,1.249,1.238,1.249c0.594-0.068,1.377-0.375,2.352-0.924
		c0.973-0.547,1.956-1.246,2.946-2.095c0.99-0.846,1.912-1.826,2.771-2.938c0.857-1.114,1.486-2.269,1.882-3.465
		c0.725-2.192,1.46-4.403,2.203-6.629c0.742-2.227,1.535-4.244,2.376-6.055c0.841-1.812,1.75-3.308,2.723-4.486
		c0.973-1.179,2.054-1.82,3.243-1.919c1.056,0,1.922,0.342,2.599,1.022c0.676,0.681,1.015,1.569,1.015,2.667
		c0,1.296-0.174,2.69-0.521,4.187c-0.346,1.495-0.8,2.989-1.36,4.487c-0.562,1.495-1.231,2.938-2.006,4.334
		c-0.775,1.396-1.577,2.658-2.401,3.789c0.23,0.696,0.71,1.045,1.436,1.045c1.287,0,2.5-0.101,3.639-0.299
		c1.138-0.197,2.244-0.49,3.316-0.87c1.072-0.384,2.146-0.841,3.218-1.372c1.071-0.531,2.186-1.146,3.341-1.845
		c0.528-0.366,1.057-0.55,1.584-0.55c0.66,0,1.254,0.249,1.782,0.75c0.528,0.499,0.792,1.145,0.792,1.942
		c0,0.731-0.322,1.479-0.965,2.243c-0.644,0.767-1.493,1.514-2.549,2.243c-1.057,0.731-2.252,1.411-3.589,2.043
		c-1.336,0.631-2.69,1.188-4.059,1.67c-1.37,0.481-2.69,0.865-3.96,1.147c-1.271,0.281-2.384,0.423-3.341,0.423
		c-1.85,0-3.746-0.531-5.693-1.595c-2.311,2.792-4.712,4.918-7.203,6.38c-2.494,1.463-5.025,2.192-7.599,2.192
		c-2.376,0-4.084-0.623-5.125-1.868c-1.039-1.246-1.559-3.066-1.559-5.457c-2.476,2.525-4.793,4.376-6.955,5.557
		c-2.162,1.179-4.381,1.769-6.659,1.769c-1.453,0-2.666-0.174-3.639-0.522c-0.974-0.349-1.758-0.839-2.352-1.47
		c-0.594-0.63-1.014-1.372-1.261-2.218c-0.249-0.849-0.373-1.77-0.373-2.768c0-1.627,0.23-3.347,0.693-5.159
		c0.462-1.81,1.014-3.562,1.658-5.257s1.287-3.265,1.931-4.71C50.88,49.617,51.401,48.445,51.795,47.549z"/>
	<path fill="#0A0A0A" d="M128.083,35.637c2.739,0,4.785,0.666,6.139,1.994c1.353,1.33,2.029,3.173,2.029,5.533
		c0,1.396-0.363,2.858-1.089,4.386c-0.727,1.528-1.98,3.083-3.763,4.662c-1.782,1.577-4.167,3.191-7.153,4.833
		c-2.987,1.646-6.725,3.299-11.213,4.961c0.166,0.965,0.676,1.719,1.534,2.267c0.858,0.547,1.998,0.821,3.417,0.821
		c1.518,0,3.144-0.222,4.876-0.671c1.732-0.448,3.447-1.023,5.148-1.721c1.7-0.696,3.358-1.452,4.975-2.269
		c1.616-0.812,3.076-1.586,4.381-2.317c1.304-0.728,2.393-1.361,3.269-1.893c0.874-0.529,1.459-0.864,1.757-0.997
		c0.297-0.198,0.569-0.315,0.817-0.352c0.247-0.029,0.47-0.047,0.667-0.047c0.397,0,0.725,0.091,0.99,0.274
		c0.265,0.183,0.486,0.398,0.668,0.646c0.181,0.25,0.304,0.516,0.371,0.798c0.066,0.285,0.1,0.524,0.1,0.725
		c0,0.296-0.033,0.655-0.1,1.071c-0.067,0.413-0.314,0.889-0.742,1.42c-0.166,0.165-0.718,0.614-1.658,1.347
		c-0.94,0.73-2.154,1.593-3.639,2.591c-1.485,0.997-3.21,2.052-5.174,3.166c-1.964,1.113-4.042,2.134-6.237,3.062
		c-2.195,0.933-4.479,1.704-6.855,2.32c-2.376,0.613-4.721,0.921-7.031,0.921c-1.979,0-3.736-0.382-5.271-1.146
		c-1.535-0.765-2.839-1.794-3.911-3.091c-1.072-1.296-1.89-2.791-2.45-4.483c-0.561-1.696-0.841-3.474-0.841-5.336
		c0-1.426,0.28-2.996,0.841-4.708c0.561-1.713,1.369-3.432,2.426-5.161c1.057-1.725,2.352-3.411,3.887-5.059
		c1.533-1.643,3.258-3.097,5.171-4.36c1.915-1.263,4.018-2.275,6.313-3.04C123.025,36.019,125.477,35.637,128.083,35.637z
		 M126.3,42.515c-0.166-0.033-0.313-0.05-0.445-0.05s-0.281,0-0.445,0c-1.255,0-2.426,0.25-3.516,0.748
		c-1.089,0.498-2.087,1.155-2.994,1.968c-0.909,0.816-1.717,1.738-2.427,2.768c-0.71,1.028-1.344,2.052-1.906,3.067
		c-0.562,1.013-1.032,1.986-1.41,2.914c-0.379,0.93-0.668,1.712-0.867,2.343c1.155-0.599,2.352-1.28,3.589-2.042
		c1.238-0.767,2.402-1.496,3.49-2.196c1.089-0.697,2.037-1.326,2.847-1.894c0.809-0.562,1.377-0.945,1.708-1.146
		c1.486-0.93,2.508-1.801,3.069-2.617c0.562-0.813,0.842-1.52,0.842-2.118c0-0.499-0.157-0.897-0.471-1.196
		C127.052,42.763,126.697,42.582,126.3,42.515z"/>
	<path fill="#0A0A0A" d="M162.935,35.637c2.738,0,4.786,0.666,6.138,1.994c1.354,1.33,2.031,3.173,2.031,5.533
		c0,1.396-0.365,2.858-1.09,4.386c-0.726,1.528-1.979,3.083-3.762,4.662c-1.782,1.577-4.167,3.191-7.154,4.833
		c-2.986,1.646-6.725,3.299-11.212,4.961c0.165,0.965,0.675,1.719,1.534,2.267c0.859,0.547,1.997,0.821,3.417,0.821
		c1.518,0,3.144-0.222,4.875-0.671c1.732-0.448,3.449-1.023,5.149-1.721c1.698-0.696,3.358-1.452,4.974-2.269
		c1.617-0.812,3.077-1.586,4.381-2.317c1.306-0.728,2.394-1.361,3.268-1.893c0.875-0.529,1.461-0.864,1.759-0.997
		c0.296-0.198,0.569-0.315,0.815-0.352c0.25-0.029,0.472-0.047,0.67-0.047c0.396,0,0.726,0.091,0.99,0.274
		c0.265,0.183,0.487,0.398,0.668,0.646c0.18,0.25,0.307,0.516,0.371,0.798c0.067,0.285,0.099,0.524,0.099,0.725
		c0,0.296-0.031,0.655-0.099,1.071c-0.064,0.413-0.312,0.889-0.742,1.42c-0.166,0.165-0.718,0.614-1.659,1.347
		c-0.939,0.73-2.153,1.593-3.638,2.591c-1.486,0.997-3.21,2.052-5.174,3.166c-1.962,1.113-4.042,2.134-6.238,3.062
		c-2.195,0.933-4.479,1.704-6.855,2.32c-2.376,0.613-4.721,0.921-7.03,0.921c-1.979,0-3.737-0.382-5.271-1.146
		c-1.536-0.765-2.839-1.794-3.912-3.091c-1.073-1.296-1.89-2.791-2.45-4.483c-0.562-1.696-0.842-3.474-0.842-5.336
		c0-1.426,0.281-2.996,0.842-4.708c0.56-1.713,1.369-3.432,2.425-5.161c1.056-1.725,2.352-3.411,3.886-5.059
		c1.534-1.643,3.259-3.097,5.173-4.36c1.914-1.263,4.019-2.275,6.312-3.04C157.877,36.019,160.327,35.637,162.935,35.637z
		 M161.152,42.515c-0.166-0.033-0.314-0.05-0.446-0.05s-0.281,0-0.444,0c-1.256,0-2.428,0.25-3.516,0.748
		c-1.089,0.498-2.088,1.155-2.995,1.968c-0.909,0.816-1.718,1.738-2.426,2.768c-0.711,1.028-1.345,2.052-1.907,3.067
		c-0.562,1.013-1.032,1.986-1.411,2.914c-0.379,0.93-0.667,1.712-0.865,2.343c1.155-0.599,2.352-1.28,3.588-2.042
		c1.238-0.767,2.402-1.496,3.491-2.196c1.089-0.697,2.037-1.326,2.847-1.894c0.809-0.562,1.378-0.945,1.708-1.146
		c1.486-0.93,2.508-1.801,3.069-2.617c0.562-0.813,0.842-1.52,0.842-2.118c0-0.499-0.158-0.897-0.472-1.196
		C161.902,42.763,161.548,42.582,161.152,42.515z"/>
	<path fill="#0A0A0A" d="M190.31,44.209c-1.22,2.394-2.376,4.728-3.464,7.004c-1.09,2.275-2.113,4.377-3.07,6.304
		c-0.396,0.797-0.784,1.72-1.164,2.766c-0.379,1.045-0.568,1.97-0.568,2.766c0,0.466,0.106,0.833,0.322,1.099
		c0.214,0.265,0.569,0.397,1.064,0.397c0.692,0,1.566-0.206,2.623-0.624c1.056-0.414,2.194-0.963,3.416-1.643
		c1.222-0.682,2.509-1.464,3.861-2.343c1.354-0.88,2.682-1.795,3.985-2.74c1.303-0.949,2.55-1.895,3.737-2.845
		c1.188-0.944,2.245-1.817,3.169-2.614c0.528-0.367,1.022-0.549,1.483-0.549c0.562,0,1.024,0.25,1.388,0.746
		c0.362,0.499,0.545,1.131,0.545,1.896c0,0.766-0.183,1.546-0.545,2.343c-0.363,0.797-1.024,1.577-1.98,2.343
		c-2.146,1.96-4.316,3.82-6.51,5.582c-2.196,1.762-4.373,3.312-6.535,4.66c-2.162,1.344-4.298,2.418-6.41,3.214
		c-2.112,0.8-4.158,1.196-6.139,1.196c-1.321,0-2.426-0.174-3.317-0.522s-1.61-0.832-2.153-1.446
		c-0.546-0.614-0.934-1.328-1.163-2.143c-0.231-0.814-0.347-1.687-0.347-2.616c0-1.661,0.278-3.391,0.841-5.185
		c0.562-1.795,1.189-3.406,1.882-4.835c0.99-2.06,1.972-4.103,2.947-6.13c0.972-2.027,1.921-3.969,2.846-5.831h-2.129
		c-1.849,0-3.119-0.299-3.812-0.897s-1.039-1.279-1.039-2.044c0-0.332,0.106-0.738,0.32-1.222c0.216-0.48,0.529-0.929,0.941-1.345
		c0.412-0.415,0.916-0.772,1.51-1.071c0.595-0.299,1.271-0.449,2.029-0.449h5.348l10.446-20.883c0.659-1.263,1.475-2.168,2.45-2.717
		c0.972-0.548,1.987-0.822,3.043-0.822c0.991,0,1.897,0.267,2.724,0.797c0.824,0.531,1.237,1.413,1.237,2.642
		c0,0.631-0.14,1.272-0.421,1.918c-0.28,0.647-0.652,1.403-1.113,2.268c-0.298,0.566-0.661,1.238-1.09,2.019
		c-0.429,0.78-0.883,1.612-1.361,2.491c-0.479,0.881-0.974,1.804-1.486,2.767c-0.51,0.965-1.013,1.895-1.508,2.792
		c-1.123,2.126-2.311,4.369-3.564,6.728h16.138c0.793,0,1.519,0.042,2.179,0.125c0.66,0.083,1.229,0.249,1.707,0.498
		c0.479,0.249,0.852,0.591,1.114,1.021c0.265,0.432,0.396,1.014,0.396,1.745c0,0.365-0.058,0.73-0.173,1.095
		c-0.116,0.366-0.331,0.698-0.645,0.998c-0.314,0.299-0.741,0.549-1.287,0.748c-0.542,0.2-1.245,0.333-2.104,0.399L190.31,44.209z"
		/>
	<path fill="#0A0A0A" d="M256.646,6.031c0.496-0.998,1.09-1.877,1.782-2.642c0.693-0.764,1.436-1.396,2.228-1.895
		c0.793-0.499,1.603-0.872,2.426-1.122C263.908,0.125,264.683,0,265.41,0c1.055,0,1.946,0.274,2.672,0.822
		c0.727,0.549,1.091,1.355,1.091,2.417c0,0.831-0.216,1.728-0.645,2.692c-1.849,3.988-3.729,8-5.644,12.038
		c-1.914,4.036-3.838,7.982-5.768,11.837c-1.931,3.854-3.82,7.567-5.668,11.139c-1.849,3.572-3.631,6.886-5.348,9.944
		c-1.715,3.057-3.325,5.798-4.824,8.222c-1.503,2.427-2.864,4.437-4.086,6.032c2.87-0.2,5.496-0.466,7.872-0.798
		c2.376-0.331,4.67-0.715,6.881-1.146c2.211-0.432,4.43-0.904,6.659-1.421c2.227-0.517,4.627-1.039,7.202-1.57
		c0.164-0.065,0.347-0.117,0.544-0.15c0.197-0.031,0.38-0.05,0.545-0.05c1.023,0,1.832,0.41,2.426,1.22
		c0.594,0.816,0.891,1.74,0.891,2.77c0,0.63-0.594,1.303-1.781,2.018c-1.188,0.714-2.814,1.419-4.875,2.119
		c-2.064,0.696-4.49,1.369-7.279,2.019c-2.79,0.645-5.8,1.211-9.035,1.693c-3.233,0.481-6.616,0.863-10.148,1.146
		c-3.53,0.282-7.046,0.425-10.544,0.425c-4.059,0-7.557-0.283-10.495-0.848c-2.938-0.566-5.354-1.347-7.251-2.343
		c-1.899-0.998-3.303-2.177-4.21-3.54c-0.908-1.362-1.36-2.839-1.36-4.435c0-1.562,0.288-2.885,0.866-3.963
		c0.576-1.08,1.368-1.953,2.375-2.617s2.195-1.146,3.565-1.443c1.37-0.301,2.847-0.449,4.432-0.449c1.286,0,2.623,0.231,4.009,0.697
		c1.388,0.466,2.747,1.071,4.084,1.82c1.336,0.745,2.607,1.576,3.812,2.492c1.204,0.911,2.253,1.833,3.144,2.765
		c0.76-1.994,1.674-4.22,2.748-6.682c1.071-2.456,2.235-5.039,3.49-7.748c1.253-2.708,2.572-5.482,3.959-8.324
		c1.387-2.841,2.772-5.639,4.159-8.397c1.386-2.758,2.738-5.416,4.06-7.975c1.319-2.558,2.541-4.901,3.663-7.028
		c1.122-2.125,2.12-4.004,2.995-5.632C255.467,8.142,256.152,6.895,256.646,6.031z M212.637,61.505c0,0.432,0.231,0.874,0.693,1.32
		c0.462,0.45,1.18,0.873,2.152,1.271c0.976,0.398,2.229,0.721,3.763,0.972c1.535,0.25,3.375,0.392,5.521,0.424
		c-0.99-0.53-1.989-1.089-2.994-1.67c-1.008-0.581-1.973-1.112-2.897-1.596c-0.924-0.48-1.766-0.88-2.523-1.196
		c-0.761-0.313-1.402-0.473-1.932-0.473C213.23,60.558,212.637,60.876,212.637,61.505z"/>
	<path fill="#0A0A0A" d="M287.439,35.687c1.253,0,2.6,0.167,4.034,0.498c1.437,0.333,2.765,0.897,3.984,1.695
		c1.222,0.798,2.235,1.852,3.044,3.165c0.811,1.312,1.214,2.933,1.214,4.86c0,0.997-0.132,2.135-0.396,3.414
		c-0.264,1.279-0.659,2.615-1.188,4.013c0.33,0.396,0.71,0.681,1.139,0.846c0.426,0.166,0.891,0.249,1.385,0.249
		c0.693,0,1.463-0.196,2.301-0.597c0.845-0.399,1.711-0.916,2.6-1.547c0.892-0.629,1.783-1.344,2.675-2.143
		c0.892-0.797,1.733-1.594,2.522-2.391c0.793-0.797,1.51-1.553,2.154-2.268c0.644-0.714,1.182-1.321,1.607-1.819
		c0.235-0.232,0.513-0.35,0.843-0.35c0.463,0,0.875,0.242,1.238,0.725c0.364,0.48,0.545,1.153,0.545,2.017
		c0,0.865-0.257,1.862-0.766,2.993c-0.516,1.128-1.463,2.308-2.848,3.536c-0.792,0.863-1.7,1.863-2.724,2.993
		c-1.024,1.128-2.111,2.19-3.266,3.188c-1.156,0.997-2.362,1.844-3.613,2.543c-1.256,0.697-2.511,1.046-3.764,1.046
		c-0.859,0-1.692-0.133-2.498-0.399c-0.811-0.266-1.628-0.698-2.455-1.295c-1.185,1.859-2.54,3.555-4.058,5.082
		c-1.518,1.529-3.209,2.84-5.073,3.938c-1.866,1.098-3.879,1.951-6.04,2.567c-2.163,0.613-4.463,0.921-6.906,0.921
		c-0.924,0-1.997-0.183-3.218-0.549c-1.222-0.363-2.385-0.972-3.49-1.82c-1.105-0.846-2.037-1.947-2.797-3.312
		c-0.759-1.361-1.138-3.021-1.138-4.985c0-1.326,0.215-2.922,0.644-4.782c0.429-1.861,1.079-3.78,1.955-5.758
		c0.873-1.977,1.98-3.937,3.316-5.882c1.337-1.942,2.929-3.688,4.778-5.232c1.847-1.546,3.959-2.792,6.335-3.738
		C281.895,36.16,284.534,35.687,287.439,35.687z M284.865,44.458c-1.553,0-3.045,0.391-4.48,1.173
		c-1.435,0.778-2.707,1.81-3.812,3.088c-1.107,1.28-1.989,2.727-2.648,4.338c-0.661,1.611-0.991,3.263-0.991,4.957
		c0,0.631,0.05,1.321,0.149,2.068c0.1,0.749,0.305,1.445,0.619,2.095c0.312,0.647,0.766,1.189,1.36,1.62
		c0.595,0.432,1.387,0.649,2.377,0.649c1.519,0,2.995-0.409,4.429-1.225c1.438-0.812,2.716-1.876,3.838-3.188
		c1.122-1.313,2.014-2.801,2.675-4.46c0.658-1.664,0.989-3.341,0.989-5.035c0-0.664-0.042-1.354-0.124-2.069
		c-0.084-0.714-0.281-1.371-0.594-1.969c-0.314-0.598-0.768-1.088-1.362-1.47C286.696,44.65,285.889,44.458,284.865,44.458z"/>
	<path fill="#0A0A0A" d="M330.854,35.687c1.454,0,2.725,0.182,3.815,0.548c1.087,0.366,2.011,0.764,2.769,1.196
		c0.859,0.531,1.619,1.114,2.281,1.745c0.459-0.298,0.953-0.581,1.48-0.848c0.465-0.231,0.976-0.44,1.539-0.622
		c0.559-0.183,1.122-0.274,1.68-0.274c1.451,0,2.576,0.299,3.367,0.896c0.794,0.598,1.19,1.315,1.19,2.144
		c0,0.433-0.116,0.866-0.352,1.296l-11.58,22.082l0.939-0.85c3.896-2.291,7.094-4.095,9.603-5.407
		c2.51-1.312,4.507-2.284,5.994-2.914c1.48-0.634,2.549-1.023,3.193-1.172c0.64-0.15,1.047-0.226,1.212-0.226
		c0.759,0,1.342,0.292,1.756,0.872c0.409,0.582,0.617,1.306,0.617,2.168c0,0.967-0.271,1.944-0.816,2.941
		c-0.546,0.995-1.378,1.712-2.5,2.144c-1.485,0.764-3.216,1.587-5.197,2.467s-4.044,1.854-6.19,2.917
		c-2.143,1.063-4.299,2.249-6.459,3.564c-2.162,1.311-4.182,2.765-6.062,4.359l-9.605,17.494c-0.791,1.895-1.507,3.438-2.151,4.637
		c-0.644,1.192-1.281,2.143-1.906,2.84c-0.628,0.696-1.271,1.18-1.932,1.445s-1.42,0.398-2.278,0.398
		c-1.285,0-2.303-0.448-3.042-1.346c-0.747-0.895-1.116-1.975-1.116-3.24c0-1.329,0.313-2.873,0.941-4.635
		c0.627-1.762,1.509-3.664,2.648-5.707s2.516-4.186,4.135-6.43c1.615-2.242,3.413-4.526,5.396-6.854l6.135-7.874
		c-1.25,1.163-2.489,2.161-3.713,2.99c-1.221,0.831-2.388,1.503-3.511,2.019c-1.122,0.517-2.169,0.891-3.146,1.122
		c-0.974,0.232-1.822,0.349-2.549,0.349c-1.321,0-2.543-0.305-3.662-0.924c-1.123-0.614-2.092-1.468-2.896-2.565
		c-0.81-1.098-1.443-2.391-1.906-3.888c-0.462-1.496-0.693-3.123-0.693-4.885c0-3.654,0.699-6.96,2.104-9.917
		c1.399-2.958,3.199-5.475,5.396-7.554c2.192-2.074,4.619-3.678,7.275-4.808C325.715,36.252,328.313,35.687,330.854,35.687z
		 M328.976,44.458c-1.553,0-3.056,0.391-4.504,1.173c-1.454,0.778-2.742,1.81-3.866,3.088c-1.119,1.28-2.01,2.75-2.671,4.412
		c-0.661,1.664-0.991,3.371-0.991,5.133c0,0.531,0.041,1.104,0.125,1.72c0.08,0.615,0.262,1.189,0.543,1.719
		c0.28,0.531,0.693,0.974,1.237,1.32c0.546,0.353,1.299,0.524,2.255,0.524c0.693,0,1.512-0.307,2.448-0.923
		c0.942-0.613,1.917-1.396,2.923-2.342c1.005-0.947,1.988-1.993,2.945-3.141c0.955-1.146,1.82-2.27,2.602-3.362
		c0.771-1.098,1.391-2.086,1.855-2.966c0.457-0.879,0.689-1.537,0.689-1.968c0-0.731-0.197-1.372-0.591-1.918
		c-0.397-0.55-0.886-1.005-1.46-1.372c-0.582-0.366-1.189-0.64-1.836-0.822C330.04,44.55,329.467,44.458,328.976,44.458z"/>
</g>
<g display="none">
	<path display="inline" fill="#4474E0" d="M72.962,36.165c0,0.268-0.098,0.645-0.292,1.128c-0.195,0.484-0.469,0.958-0.822,1.419
		c-0.354,0.462-0.778,0.864-1.275,1.207c-0.497,0.343-1.048,0.514-1.654,0.514c-0.144,0-0.324-0.011-0.54-0.033
		c-0.216-0.022-0.429-0.078-0.638-0.168c-0.209-0.089-0.386-0.215-0.529-0.379c-0.145-0.164-0.216-0.38-0.216-0.648
		c0-0.134,0.065-0.324,0.195-0.57c0.129-0.246,0.27-0.51,0.421-0.793s0.292-0.559,0.421-0.827s0.195-0.492,0.195-0.67
		c0-0.506-0.346-0.875-1.038-1.106c-0.692-0.231-1.852-0.346-3.481-0.346c-1.629,0.06-3.099,0.16-4.41,0.302
		c-1.312,0.142-2.522,0.32-3.632,0.537c-1.11,0.216-2.147,0.466-3.113,0.748c-0.965,0.284-1.917,0.585-2.854,0.905
		c-0.937,0.321-1.884,0.663-2.843,1.028s-1.978,0.734-3.059,1.106c-0.101,0.03-0.198,0.06-0.292,0.089
		c-0.094,0.03-0.176,0.045-0.249,0.045c-0.23,0-0.44-0.052-0.627-0.157c-0.187-0.104-0.35-0.246-0.486-0.424
		c-0.137-0.179-0.245-0.38-0.324-0.604c-0.079-0.224-0.119-0.455-0.119-0.693c0-0.388,0.303-0.824,0.908-1.308
		c0.605-0.484,1.434-0.972,2.486-1.464c1.052-0.492,2.292-0.973,3.718-1.442s2.965-0.886,4.615-1.252
		c1.65-0.365,3.372-0.655,5.167-0.871c1.794-0.216,3.585-0.324,5.372-0.324c1.542,0,2.875,0.126,4,0.38
		c1.124,0.253,2.053,0.604,2.788,1.051c0.735,0.447,1.283,0.98,1.643,1.598C72.759,34.761,72.947,35.435,72.962,36.165z
		 M47.691,62.314c-0.216,0.447-0.476,0.842-0.778,1.186c-0.303,0.342-0.627,0.625-0.973,0.849c-0.346,0.224-0.699,0.392-1.06,0.503
		c-0.36,0.111-0.699,0.168-1.016,0.168c-0.462,0-0.851-0.123-1.167-0.369c-0.317-0.245-0.476-0.607-0.476-1.084
		c0-0.164,0.018-0.347,0.054-0.547c0.036-0.202,0.111-0.422,0.227-0.66c1.095-2.338,2.187-4.589,3.275-6.75
		c1.088-2.159,2.14-4.179,3.156-6.056c1.016-1.878,1.978-3.588,2.886-5.13s1.733-2.861,2.475-3.956
		c0.742-1.095,1.376-1.941,1.902-2.537c0.526-0.596,0.911-0.894,1.156-0.894c0.504,0,0.879,0.149,1.125,0.447
		c0.245,0.299,0.368,0.648,0.368,1.051c0,0.328-0.08,0.656-0.238,0.983c-0.36,0.76-0.767,1.62-1.221,2.582s-0.933,1.981-1.438,3.062
		c-0.504,1.081-1.03,2.198-1.578,3.352c-0.548,1.156-1.088,2.303-1.622,3.442c-0.533,1.141-1.056,2.243-1.567,3.309
		c-0.511,1.065-0.987,2.052-1.426,2.961c-0.44,0.909-0.836,1.718-1.189,2.426C48.213,61.357,47.921,61.912,47.691,62.314z"/>
	<path display="inline" fill="#4474E0" d="M61.482,52.436c0.447-1.028,0.814-1.859,1.103-2.493c0.289-0.632,0.551-1.124,0.789-1.475
		c0.238-0.35,0.476-0.584,0.713-0.704c0.238-0.119,0.537-0.179,0.897-0.179c0.547,0,1.019,0.183,1.416,0.548
		s0.595,0.831,0.595,1.396c0,0.134-0.018,0.269-0.054,0.403c-0.036,0.134-0.083,0.268-0.141,0.402l-3.675,8.985
		c-0.057,0.119-0.097,0.248-0.119,0.391s-0.032,0.257-0.032,0.347c0,0.194,0.04,0.339,0.119,0.436
		c0.079,0.098,0.162,0.146,0.249,0.146c0.159,0,0.32-0.037,0.486-0.111c0.166-0.074,0.36-0.205,0.583-0.392
		c0.223-0.187,0.498-0.439,0.822-0.761c0.324-0.319,0.724-0.726,1.2-1.217c0.446-0.492,0.908-1.084,1.383-1.777
		c0.476-0.693,0.94-1.423,1.395-2.19c0.454-0.767,0.875-1.542,1.265-2.325c0.389-0.782,0.728-1.508,1.016-2.179
		c0.216-0.446,0.411-0.808,0.583-1.084c0.173-0.275,0.342-0.488,0.508-0.637c0.166-0.148,0.335-0.249,0.508-0.302
		c0.172-0.052,0.375-0.078,0.605-0.078c0.878,0,1.318,0.395,1.318,1.185c-0.029,0.12-0.047,0.254-0.054,0.402
		c-0.008,0.149-0.047,0.32-0.119,0.514L71.47,59.99c0,0.373,0.18,0.56,0.541,0.56c0.26-0.03,0.602-0.168,1.027-0.414
		c0.425-0.245,0.854-0.559,1.287-0.939c0.432-0.379,0.835-0.818,1.21-1.317c0.375-0.5,0.648-1.018,0.821-1.554
		c0.317-0.983,0.638-1.975,0.962-2.973c0.324-0.999,0.67-1.903,1.038-2.715c0.367-0.812,0.764-1.483,1.189-2.012
		c0.425-0.529,0.897-0.816,1.416-0.861c0.461,0,0.839,0.153,1.135,0.458s0.443,0.704,0.443,1.196c0,0.581-0.076,1.207-0.227,1.877
		c-0.151,0.67-0.35,1.34-0.595,2.012c-0.245,0.67-0.537,1.317-0.875,1.943c-0.339,0.626-0.689,1.192-1.049,1.699
		c0.101,0.312,0.31,0.469,0.627,0.469c0.562,0,1.092-0.045,1.589-0.134s0.98-0.22,1.448-0.391c0.468-0.172,0.937-0.377,1.405-0.615
		s0.955-0.514,1.459-0.827c0.23-0.164,0.461-0.246,0.692-0.246c0.289,0,0.548,0.111,0.778,0.336c0.23,0.224,0.346,0.514,0.346,0.871
		c0,0.328-0.14,0.663-0.421,1.006c-0.281,0.344-0.652,0.679-1.113,1.006c-0.461,0.328-0.983,0.633-1.567,0.916
		c-0.583,0.283-1.174,0.533-1.772,0.749s-1.175,0.388-1.729,0.515c-0.555,0.126-1.042,0.189-1.459,0.189
		c-0.808,0-1.636-0.238-2.486-0.715c-1.009,1.252-2.057,2.205-3.146,2.86c-1.088,0.656-2.193,0.983-3.318,0.983
		c-1.038,0-1.783-0.279-2.237-0.838s-0.681-1.375-0.681-2.447c-1.081,1.133-2.093,1.963-3.037,2.492
		c-0.944,0.528-1.913,0.793-2.908,0.793c-0.634,0-1.164-0.078-1.589-0.234s-0.768-0.376-1.027-0.659
		c-0.259-0.282-0.443-0.615-0.551-0.994c-0.108-0.381-0.163-0.794-0.163-1.241c0-0.729,0.101-1.501,0.303-2.313
		c0.202-0.812,0.443-1.598,0.724-2.357c0.281-0.76,0.562-1.464,0.843-2.112C61.083,53.363,61.31,52.838,61.482,52.436z"/>
	<path display="inline" fill="#4474E0" d="M94.795,47.094c1.196,0,2.089,0.298,2.681,0.894c0.591,0.596,0.886,1.423,0.886,2.481
		c0,0.626-0.159,1.282-0.476,1.967s-0.865,1.382-1.643,2.09c-0.778,0.707-1.819,1.431-3.124,2.167
		c-1.304,0.738-2.937,1.479-4.896,2.225c0.072,0.433,0.295,0.771,0.67,1.017c0.375,0.245,0.872,0.368,1.492,0.368
		c0.663,0,1.373-0.1,2.129-0.301c0.757-0.201,1.506-0.459,2.249-0.771s1.466-0.651,2.172-1.018c0.706-0.364,1.344-0.711,1.914-1.039
		c0.569-0.326,1.045-0.61,1.426-0.849c0.382-0.237,0.638-0.388,0.768-0.447c0.13-0.089,0.249-0.142,0.357-0.157
		c0.108-0.014,0.205-0.021,0.292-0.021c0.173,0,0.317,0.041,0.432,0.123c0.116,0.082,0.213,0.179,0.292,0.29
		c0.079,0.112,0.133,0.231,0.163,0.357c0.029,0.128,0.043,0.235,0.043,0.325c0,0.133-0.014,0.294-0.043,0.48
		c-0.029,0.186-0.138,0.398-0.325,0.637c-0.072,0.074-0.313,0.275-0.724,0.604c-0.411,0.328-0.94,0.715-1.589,1.162
		s-1.402,0.92-2.259,1.42c-0.857,0.499-1.765,0.957-2.723,1.373c-0.959,0.418-1.957,0.764-2.994,1.04
		c-1.038,0.275-2.062,0.413-3.07,0.413c-0.865,0-1.632-0.171-2.302-0.514s-1.24-0.805-1.708-1.386s-0.825-1.252-1.07-2.011
		c-0.245-0.761-0.368-1.558-0.368-2.393c0-0.64,0.123-1.344,0.368-2.111c0.245-0.769,0.598-1.539,1.059-2.314
		c0.461-0.773,1.027-1.53,1.697-2.269c0.669-0.737,1.423-1.389,2.259-1.955s1.754-1.021,2.756-1.363
		C92.586,47.266,93.657,47.094,94.795,47.094z M94.017,50.179c-0.072-0.015-0.137-0.022-0.195-0.022c-0.058,0-0.122,0-0.194,0
		c-0.548,0-1.059,0.112-1.535,0.335c-0.476,0.223-0.911,0.518-1.308,0.882c-0.396,0.366-0.75,0.779-1.059,1.241
		c-0.31,0.461-0.587,0.92-0.832,1.375c-0.245,0.454-0.451,0.891-0.616,1.307c-0.166,0.417-0.292,0.768-0.378,1.051
		c0.505-0.269,1.027-0.574,1.567-0.916c0.54-0.344,1.049-0.671,1.524-0.984c0.476-0.312,0.89-0.595,1.243-0.85
		c0.353-0.252,0.602-0.424,0.746-0.514c0.648-0.417,1.095-0.808,1.34-1.173c0.245-0.365,0.368-0.682,0.368-0.95
		c0-0.224-0.068-0.402-0.206-0.537S94.19,50.208,94.017,50.179z"/>
	<path display="inline" fill="#4474E0" d="M110.013,47.094c1.197,0,2.09,0.298,2.681,0.894c0.591,0.596,0.886,1.423,0.886,2.481
		c0,0.626-0.159,1.282-0.476,1.967c-0.317,0.685-0.865,1.382-1.643,2.09c-0.778,0.707-1.819,1.431-3.124,2.167
		c-1.304,0.738-2.937,1.479-4.896,2.225c0.072,0.433,0.295,0.771,0.67,1.017c0.375,0.245,0.872,0.368,1.492,0.368
		c0.663,0,1.372-0.1,2.129-0.301s1.506-0.459,2.249-0.771c0.741-0.312,1.466-0.651,2.172-1.018c0.706-0.364,1.344-0.711,1.913-1.039
		c0.57-0.326,1.045-0.61,1.427-0.849c0.382-0.237,0.638-0.388,0.768-0.447c0.129-0.089,0.249-0.142,0.356-0.157
		c0.108-0.014,0.206-0.021,0.292-0.021c0.173,0,0.317,0.041,0.432,0.123c0.116,0.082,0.212,0.179,0.292,0.29
		c0.079,0.112,0.133,0.231,0.162,0.357c0.029,0.128,0.043,0.235,0.043,0.325c0,0.133-0.014,0.294-0.043,0.48
		c-0.029,0.186-0.137,0.398-0.324,0.637c-0.072,0.074-0.313,0.275-0.725,0.604c-0.41,0.328-0.94,0.715-1.588,1.162
		c-0.649,0.447-1.402,0.92-2.259,1.42c-0.857,0.499-1.765,0.957-2.724,1.373c-0.959,0.418-1.957,0.764-2.994,1.04
		c-1.038,0.275-2.061,0.413-3.069,0.413c-0.865,0-1.632-0.171-2.302-0.514c-0.67-0.343-1.24-0.805-1.708-1.386
		s-0.825-1.252-1.07-2.011c-0.246-0.761-0.368-1.558-0.368-2.393c0-0.64,0.122-1.344,0.368-2.111
		c0.245-0.769,0.598-1.539,1.059-2.314c0.461-0.773,1.027-1.53,1.697-2.269c0.67-0.737,1.423-1.389,2.259-1.955
		c0.835-0.566,1.754-1.021,2.756-1.363C107.805,47.266,108.875,47.094,110.013,47.094z M109.235,50.179
		c-0.072-0.015-0.137-0.022-0.194-0.022c-0.058,0-0.123,0-0.195,0c-0.548,0-1.059,0.112-1.535,0.335
		c-0.476,0.223-0.912,0.518-1.308,0.882c-0.396,0.366-0.749,0.779-1.059,1.241c-0.31,0.461-0.587,0.92-0.832,1.375
		c-0.246,0.454-0.451,0.891-0.616,1.307c-0.166,0.417-0.292,0.768-0.378,1.051c0.505-0.269,1.027-0.574,1.567-0.916
		c0.541-0.344,1.048-0.671,1.524-0.984c0.476-0.312,0.89-0.595,1.243-0.85c0.353-0.252,0.602-0.424,0.746-0.514
		c0.648-0.417,1.095-0.808,1.34-1.173c0.245-0.365,0.368-0.682,0.368-0.95c0-0.224-0.068-0.402-0.206-0.537
		C109.563,50.29,109.409,50.208,109.235,50.179z"/>
	<path display="inline" fill="#4474E0" d="M121.968,50.938c-0.534,1.073-1.038,2.12-1.514,3.141s-0.922,1.963-1.34,2.827
		c-0.173,0.357-0.343,0.771-0.508,1.24s-0.249,0.883-0.249,1.24c0,0.209,0.046,0.373,0.141,0.492
		c0.093,0.119,0.248,0.179,0.464,0.179c0.303,0,0.685-0.093,1.146-0.28c0.461-0.186,0.958-0.432,1.492-0.736
		c0.534-0.306,1.095-0.656,1.686-1.051c0.591-0.395,1.171-0.805,1.741-1.229c0.568-0.426,1.113-0.85,1.632-1.275
		c0.518-0.424,0.98-0.815,1.384-1.173c0.23-0.164,0.446-0.246,0.648-0.246c0.245,0,0.447,0.112,0.605,0.335
		c0.159,0.224,0.237,0.507,0.237,0.85c0,0.344-0.079,0.693-0.237,1.051c-0.158,0.357-0.447,0.707-0.865,1.051
		c-0.937,0.879-1.884,1.713-2.842,2.503c-0.959,0.79-1.911,1.485-2.854,2.09c-0.944,0.603-1.877,1.084-2.8,1.441
		c-0.922,0.358-1.816,0.536-2.681,0.536c-0.577,0-1.059-0.078-1.448-0.234s-0.703-0.373-0.94-0.648
		c-0.238-0.275-0.408-0.596-0.508-0.961c-0.101-0.365-0.151-0.756-0.151-1.173c0-0.745,0.122-1.521,0.367-2.325
		c0.245-0.805,0.519-1.527,0.822-2.168c0.432-0.924,0.86-1.84,1.286-2.749c0.425-0.909,0.839-1.78,1.243-2.615h-0.93
		c-0.807,0-1.362-0.134-1.665-0.402s-0.454-0.574-0.454-0.917c0-0.149,0.047-0.331,0.14-0.548c0.094-0.215,0.231-0.417,0.412-0.603
		c0.18-0.186,0.399-0.346,0.659-0.48c0.259-0.134,0.555-0.201,0.886-0.201h2.334l4.562-9.365c0.288-0.566,0.645-0.972,1.07-1.218
		c0.424-0.246,0.868-0.369,1.329-0.369c0.432,0,0.829,0.12,1.188,0.357c0.361,0.238,0.541,0.634,0.541,1.185
		c0,0.283-0.062,0.57-0.184,0.86c-0.123,0.291-0.285,0.629-0.486,1.017c-0.129,0.254-0.288,0.555-0.476,0.905
		c-0.187,0.35-0.386,0.723-0.595,1.117c-0.209,0.395-0.425,0.809-0.648,1.241c-0.223,0.433-0.443,0.85-0.659,1.252
		c-0.49,0.954-1.008,1.959-1.556,3.017h7.047c0.346,0,0.663,0.019,0.951,0.056s0.537,0.111,0.746,0.223
		c0.209,0.112,0.372,0.265,0.487,0.458c0.115,0.194,0.173,0.455,0.173,0.783c0,0.164-0.025,0.328-0.075,0.491
		c-0.051,0.164-0.145,0.313-0.282,0.447s-0.324,0.246-0.562,0.335c-0.237,0.089-0.543,0.149-0.918,0.179L121.968,50.938z"/>
	<path display="inline" fill="#4474E0" d="M150.935,33.818c0.217-0.447,0.476-0.842,0.779-1.185c0.302-0.343,0.626-0.626,0.973-0.85
		s0.699-0.391,1.059-0.503c0.36-0.111,0.699-0.167,1.016-0.167c0.461,0,0.851,0.123,1.167,0.369
		c0.317,0.246,0.476,0.607,0.476,1.084c0,0.373-0.094,0.775-0.281,1.207c-0.807,1.788-1.629,3.587-2.464,5.398
		c-0.836,1.81-1.675,3.58-2.519,5.308s-1.668,3.394-2.475,4.995s-1.585,3.088-2.334,4.459c-0.75,1.371-1.453,2.601-2.107,3.688
		c-0.656,1.088-1.25,1.989-1.784,2.705c1.253-0.09,2.399-0.209,3.437-0.358c1.038-0.148,2.04-0.32,3.005-0.514
		c0.966-0.193,1.935-0.405,2.908-0.637c0.973-0.231,2.021-0.466,3.145-0.704c0.072-0.029,0.151-0.053,0.238-0.067
		s0.166-0.022,0.237-0.022c0.447,0,0.801,0.184,1.06,0.547c0.259,0.366,0.389,0.78,0.389,1.242c0,0.282-0.259,0.584-0.778,0.904
		c-0.519,0.32-1.229,0.637-2.129,0.95c-0.901,0.312-1.96,0.614-3.178,0.905c-1.218,0.289-2.533,0.543-3.945,0.76
		c-1.412,0.216-2.89,0.387-4.432,0.514s-3.077,0.19-4.604,0.19c-1.773,0-3.3-0.127-4.583-0.38c-1.283-0.254-2.338-0.604-3.167-1.051
		c-0.83-0.447-1.442-0.976-1.838-1.587c-0.396-0.611-0.594-1.273-0.594-1.989c0-0.7,0.125-1.293,0.378-1.776
		c0.252-0.484,0.598-0.876,1.038-1.174s0.958-0.514,1.557-0.647c0.598-0.135,1.243-0.201,1.935-0.201
		c0.562,0,1.146,0.104,1.751,0.312c0.605,0.209,1.199,0.48,1.784,0.816c0.583,0.334,1.138,0.707,1.664,1.117
		c0.525,0.409,0.983,0.822,1.373,1.24c0.332-0.895,0.731-1.893,1.2-2.996c0.467-1.102,0.976-2.26,1.523-3.475
		c0.547-1.214,1.125-2.458,1.73-3.733c0.605-1.274,1.21-2.529,1.816-3.766c0.605-1.237,1.196-2.429,1.772-3.576
		c0.576-1.147,1.109-2.198,1.6-3.151c0.49-0.953,0.925-1.795,1.308-2.525C150.42,34.765,150.719,34.206,150.935,33.818z
		 M131.718,58.694c0,0.193,0.101,0.392,0.302,0.592c0.202,0.202,0.515,0.392,0.94,0.57c0.425,0.179,0.973,0.323,1.643,0.436
		c0.67,0.112,1.473,0.176,2.41,0.19c-0.432-0.238-0.868-0.488-1.308-0.749c-0.44-0.261-0.861-0.499-1.265-0.716
		c-0.404-0.215-0.771-0.395-1.103-0.536c-0.332-0.141-0.613-0.212-0.843-0.212C131.977,58.27,131.718,58.412,131.718,58.694z"/>
	<path display="inline" fill="#4474E0" d="M164.382,47.117c0.547,0,1.135,0.075,1.761,0.223c0.627,0.149,1.208,0.402,1.741,0.76
		s0.976,0.831,1.33,1.419c0.353,0.588,0.529,1.315,0.529,2.179c0,0.447-0.057,0.958-0.172,1.531c-0.116,0.573-0.289,1.173-0.52,1.8
		c0.145,0.178,0.31,0.305,0.497,0.379c0.188,0.074,0.389,0.111,0.605,0.111c0.303,0,0.638-0.088,1.005-0.268
		c0.368-0.179,0.746-0.41,1.135-0.693c0.39-0.282,0.779-0.603,1.168-0.961c0.388-0.357,0.755-0.715,1.102-1.072
		s0.659-0.696,0.94-1.017c0.281-0.32,0.515-0.592,0.702-0.815c0.101-0.104,0.224-0.157,0.368-0.157c0.202,0,0.382,0.108,0.541,0.325
		c0.159,0.215,0.238,0.517,0.238,0.905s-0.112,0.835-0.334,1.342c-0.225,0.506-0.639,1.035-1.243,1.586
		c-0.346,0.387-0.743,0.835-1.19,1.342c-0.447,0.506-0.923,0.982-1.426,1.43c-0.504,0.447-1.031,0.827-1.578,1.141
		c-0.547,0.312-1.095,0.469-1.644,0.469c-0.375,0-0.738-0.06-1.091-0.179c-0.354-0.119-0.71-0.313-1.07-0.581
		c-0.519,0.834-1.11,1.594-1.773,2.279s-1.402,1.273-2.215,1.766c-0.815,0.492-1.694,0.875-2.637,1.151
		c-0.944,0.275-1.949,0.413-3.016,0.413c-0.404,0-0.872-0.082-1.405-0.246c-0.533-0.163-1.042-0.436-1.524-0.816
		c-0.482-0.379-0.89-0.873-1.221-1.485c-0.332-0.61-0.498-1.354-0.498-2.235c0-0.595,0.094-1.311,0.281-2.145
		c0.188-0.835,0.472-1.695,0.854-2.582c0.381-0.887,0.864-1.766,1.448-2.638c0.584-0.871,1.279-1.654,2.086-2.346
		c0.807-0.693,1.729-1.252,2.767-1.676C161.96,47.329,163.113,47.117,164.382,47.117z M163.257,51.05
		c-0.677,0-1.329,0.175-1.957,0.526c-0.627,0.349-1.182,0.812-1.665,1.385c-0.483,0.574-0.868,1.223-1.156,1.945
		c-0.289,0.723-0.433,1.463-0.433,2.223c0,0.283,0.021,0.593,0.065,0.928c0.043,0.336,0.133,0.648,0.271,0.939
		c0.136,0.29,0.335,0.533,0.594,0.727s0.605,0.291,1.038,0.291c0.663,0,1.308-0.184,1.935-0.549c0.627-0.364,1.186-0.842,1.675-1.43
		c0.49-0.589,0.879-1.256,1.167-2c0.289-0.746,0.432-1.498,0.432-2.258c0-0.298-0.019-0.607-0.054-0.928
		c-0.036-0.32-0.123-0.615-0.259-0.883c-0.138-0.268-0.335-0.488-0.594-0.659C164.057,51.136,163.704,51.05,163.257,51.05z"/>
	<path display="inline" fill="#4474E0" d="M183.34,47.117c0.635,0,1.189,0.082,1.664,0.246c0.477,0.164,0.88,0.343,1.211,0.537
		c0.374,0.238,0.705,0.5,0.994,0.782c0.201-0.134,0.418-0.26,0.648-0.38c0.202-0.104,0.426-0.197,0.671-0.279
		c0.243-0.082,0.489-0.123,0.734-0.123c0.634,0,1.124,0.134,1.471,0.402c0.345,0.269,0.518,0.59,0.518,0.961
		c0,0.194-0.05,0.388-0.151,0.581l-5.057,9.902l0.41-0.381c1.7-1.027,3.098-1.836,4.193-2.425s1.967-1.024,2.616-1.307
		c0.647-0.284,1.112-0.459,1.394-0.525c0.281-0.067,0.459-0.102,0.53-0.102c0.332,0,0.587,0.131,0.768,0.392
		c0.179,0.261,0.27,0.585,0.27,0.972c0,0.434-0.118,0.872-0.356,1.319c-0.238,0.446-0.602,0.768-1.092,0.961
		c-0.648,0.343-1.404,0.712-2.27,1.106s-1.766,0.831-2.703,1.308c-0.936,0.478-1.877,1.009-2.82,1.599
		c-0.944,0.588-1.827,1.24-2.647,1.955l-4.194,7.845c-0.346,0.85-0.66,1.542-0.941,2.079c-0.28,0.535-0.558,0.961-0.832,1.273
		s-0.554,0.529-0.842,0.648c-0.288,0.119-0.62,0.179-0.995,0.179c-0.562,0-1.005-0.201-1.33-0.604
		c-0.324-0.401-0.486-0.886-0.486-1.453c0-0.596,0.137-1.288,0.411-2.078s0.659-1.644,1.156-2.56
		c0.496-0.916,1.099-1.877,1.804-2.883c0.707-1.006,1.493-2.03,2.356-3.073l2.681-3.531c-0.547,0.521-1.087,0.969-1.621,1.341
		c-0.533,0.373-1.045,0.674-1.534,0.905c-0.491,0.231-0.949,0.399-1.373,0.503c-0.425,0.104-0.796,0.156-1.113,0.156
		c-0.577,0-1.11-0.137-1.6-0.414c-0.49-0.275-0.913-0.658-1.266-1.15c-0.352-0.492-0.63-1.072-0.832-1.743
		c-0.2-0.671-0.301-1.4-0.301-2.19c0-1.639,0.306-3.121,0.918-4.447c0.611-1.327,1.397-2.455,2.356-3.387
		c0.958-0.93,2.018-1.649,3.177-2.156C181.094,47.37,182.23,47.117,183.34,47.117z M182.52,51.05c-0.678,0-1.334,0.175-1.969,0.526
		c-0.633,0.349-1.196,0.812-1.686,1.385c-0.49,0.574-0.88,1.233-1.167,1.979c-0.289,0.746-0.433,1.512-0.433,2.302
		c0,0.238,0.017,0.495,0.055,0.771c0.035,0.275,0.114,0.533,0.236,0.771c0.123,0.238,0.303,0.437,0.541,0.592
		c0.238,0.158,0.565,0.235,0.983,0.235c0.303,0,0.659-0.138,1.07-0.414c0.411-0.274,0.837-0.626,1.276-1.05
		c0.438-0.425,0.867-0.894,1.285-1.408c0.418-0.514,0.795-1.018,1.136-1.508c0.337-0.492,0.607-0.936,0.811-1.33
		c0.2-0.395,0.302-0.689,0.302-0.883c0-0.328-0.087-0.615-0.26-0.86c-0.172-0.247-0.385-0.451-0.637-0.615
		c-0.254-0.164-0.519-0.287-0.801-0.369C182.983,51.091,182.734,51.05,182.52,51.05z"/>
</g>
<g>
	<path fill="#FFFFFF" d="M71.584,11.265c0,0.597-0.224,1.437-0.668,2.516c-0.445,1.08-1.072,2.135-1.881,3.166
		c-0.81,1.03-1.782,1.927-2.922,2.691c-1.137,0.765-2.399,1.146-3.786,1.146c-0.33,0-0.743-0.023-1.238-0.074
		c-0.495-0.049-0.982-0.174-1.46-0.374c-0.479-0.2-0.883-0.48-1.213-0.846c-0.33-0.366-0.494-0.848-0.494-1.446
		c0-0.298,0.147-0.722,0.445-1.271c0.297-0.548,0.618-1.138,0.965-1.769s0.668-1.247,0.965-1.844
		c0.298-0.598,0.446-1.097,0.446-1.496c0-1.129-0.792-1.951-2.376-2.467c-1.584-0.515-4.241-0.772-7.971-0.772
		C46.667,8.556,43.3,8.781,40.297,9.096c-3.003,0.317-5.775,0.714-8.317,1.197c-2.542,0.481-4.918,1.038-7.128,1.667
		c-2.211,0.633-4.389,1.305-6.535,2.019c-2.146,0.716-4.315,1.479-6.51,2.293c-2.195,0.814-4.53,1.638-7.005,2.467
		c-0.23,0.067-0.453,0.133-0.668,0.199c-0.216,0.067-0.405,0.1-0.569,0.1c-0.528,0-1.008-0.117-1.437-0.35
		c-0.428-0.231-0.799-0.547-1.114-0.946c-0.313-0.399-0.561-0.848-0.741-1.346C0.091,15.9,0,15.385,0,14.854
		c0-0.865,0.693-1.837,2.079-2.917c1.387-1.079,3.284-2.168,5.694-3.264c2.409-1.098,5.247-2.169,8.515-3.215
		c3.266-1.046,6.79-1.977,10.569-2.792c3.778-0.813,7.723-1.461,11.831-1.943C42.797,0.241,46.898,0,50.99,0
		c3.531,0,6.583,0.282,9.158,0.847c2.574,0.565,4.703,1.346,6.386,2.343c1.683,0.996,2.938,2.186,3.763,3.563
		C71.121,8.133,71.551,9.636,71.584,11.265z M13.712,69.578c-0.494,0.997-1.088,1.877-1.783,2.644
		c-0.692,0.763-1.435,1.395-2.227,1.893c-0.792,0.499-1.6,0.874-2.425,1.121C6.452,75.484,5.676,75.61,4.95,75.61
		c-1.057,0-1.948-0.274-2.674-0.823c-0.726-0.547-1.088-1.354-1.088-2.418c0-0.365,0.041-0.772,0.123-1.219
		c0.082-0.451,0.255-0.941,0.52-1.472c2.508-5.214,5.008-10.233,7.5-15.053c2.493-4.815,4.901-9.32,7.228-13.506
		c2.327-4.188,4.53-8.001,6.609-11.439c2.08-3.438,3.968-6.38,5.669-8.822c1.699-2.441,3.15-4.328,4.355-5.657
		c1.205-1.328,2.086-1.994,2.649-1.994c1.155,0,2.013,0.332,2.574,0.997c0.561,0.666,0.842,1.446,0.842,2.343
		c0,0.73-0.182,1.462-0.544,2.193c-0.825,1.694-1.758,3.613-2.797,5.757c-1.04,2.144-2.137,4.418-3.292,6.829
		c-1.156,2.41-2.36,4.902-3.614,7.476c-1.254,2.574-2.493,5.134-3.713,7.674c-1.221,2.544-2.417,5.003-3.589,7.379
		c-1.171,2.375-2.261,4.574-3.268,6.603c-1.006,2.027-1.913,3.83-2.722,5.409C14.909,67.444,14.24,68.681,13.712,69.578z"/>
	<path fill="#FFFFFF" d="M45.297,47.549c1.023-2.292,1.864-4.146,2.524-5.558c0.66-1.412,1.263-2.509,1.807-3.29
		c0.544-0.779,1.089-1.303,1.634-1.57c0.544-0.266,1.23-0.398,2.054-0.398c1.254,0,2.334,0.407,3.243,1.222
		c0.908,0.814,1.362,1.852,1.362,3.114c0,0.299-0.042,0.599-0.124,0.898c-0.083,0.298-0.19,0.598-0.321,0.896L49.06,62.901
		c-0.133,0.266-0.223,0.553-0.272,0.871c-0.05,0.317-0.075,0.573-0.075,0.772c0,0.434,0.09,0.756,0.271,0.971
		c0.181,0.219,0.371,0.326,0.57,0.326c0.362,0,0.735-0.084,1.114-0.249c0.379-0.166,0.824-0.457,1.336-0.873
		c0.512-0.417,1.138-0.98,1.881-1.696c0.743-0.713,1.658-1.618,2.748-2.714c1.022-1.098,2.079-2.418,3.168-3.963
		c1.089-1.547,2.154-3.174,3.192-4.885c1.041-1.709,2.005-3.438,2.897-5.185c0.89-1.743,1.666-3.363,2.326-4.859
		c0.496-0.995,0.94-1.801,1.337-2.416c0.395-0.616,0.783-1.089,1.163-1.421c0.379-0.331,0.767-0.556,1.163-0.673
		c0.397-0.116,0.859-0.174,1.387-0.174c2.013,0,3.019,0.881,3.019,2.642c-0.066,0.267-0.107,0.566-0.123,0.897
		c-0.017,0.332-0.107,0.715-0.271,1.146l-7.724,22.977c0,0.833,0.413,1.249,1.238,1.249c0.594-0.068,1.378-0.375,2.352-0.924
		c0.973-0.547,1.955-1.246,2.945-2.095c0.991-0.846,1.915-1.826,2.772-2.938c0.859-1.114,1.485-2.269,1.882-3.465
		c0.725-2.192,1.46-4.403,2.203-6.629c0.741-2.227,1.534-4.244,2.376-6.056c0.842-1.811,1.749-3.306,2.723-4.485
		c0.973-1.179,2.054-1.82,3.242-1.919c1.057,0,1.923,0.342,2.6,1.022c0.675,0.681,1.015,1.569,1.015,2.667
		c0,1.296-0.173,2.69-0.52,4.187c-0.347,1.495-0.801,2.989-1.362,4.487c-0.562,1.495-1.23,2.938-2.005,4.334
		c-0.776,1.396-1.577,2.658-2.401,3.789c0.23,0.696,0.71,1.045,1.435,1.045c1.288,0,2.5-0.101,3.639-0.299
		c1.14-0.197,2.245-0.49,3.318-0.87c1.072-0.384,2.146-0.841,3.218-1.372c1.073-0.531,2.186-1.146,3.342-1.845
		c0.527-0.366,1.056-0.55,1.583-0.55c0.66,0,1.253,0.249,1.782,0.75c0.527,0.499,0.792,1.145,0.792,1.942
		c0,0.731-0.321,1.479-0.965,2.243c-0.644,0.767-1.494,1.514-2.549,2.243c-1.057,0.731-2.253,1.411-3.589,2.043
		c-1.336,0.631-2.69,1.188-4.06,1.67c-1.369,0.481-2.689,0.865-3.959,1.147c-1.271,0.281-2.385,0.423-3.342,0.423
		c-1.848,0-3.746-0.531-5.693-1.595c-2.31,2.792-4.711,4.918-7.203,6.38c-2.491,1.463-5.025,2.192-7.599,2.192
		c-2.376,0-4.084-0.623-5.123-1.868c-1.04-1.246-1.56-3.066-1.56-5.457c-2.476,2.525-4.794,4.376-6.955,5.557
		c-2.163,1.179-4.382,1.769-6.659,1.769c-1.453,0-2.666-0.174-3.639-0.522s-1.758-0.839-2.352-1.47
		c-0.594-0.63-1.015-1.372-1.262-2.218c-0.248-0.849-0.372-1.77-0.372-2.768c0-1.627,0.23-3.347,0.693-5.159
		c0.462-1.81,1.016-3.562,1.658-5.257c0.643-1.694,1.287-3.265,1.931-4.71C44.381,49.617,44.901,48.445,45.297,47.549z"/>
	<path fill="#FFFFFF" d="M121.584,35.637c2.739,0,4.785,0.666,6.139,1.994c1.353,1.33,2.03,3.173,2.03,5.533
		c0,1.396-0.364,2.858-1.089,4.386c-0.726,1.528-1.98,3.083-3.763,4.662c-1.781,1.577-4.167,3.191-7.153,4.833
		c-2.987,1.646-6.726,3.299-11.213,4.961c0.166,0.965,0.677,1.719,1.535,2.267c0.858,0.547,1.996,0.821,3.415,0.821
		c1.519,0,3.144-0.222,4.876-0.671c1.733-0.448,3.449-1.023,5.149-1.721c1.7-0.696,3.356-1.452,4.975-2.269
		c1.617-0.812,3.077-1.586,4.382-2.317c1.303-0.728,2.391-1.361,3.266-1.893c0.874-0.529,1.46-0.864,1.757-0.997
		c0.297-0.198,0.57-0.315,0.817-0.352c0.247-0.029,0.471-0.047,0.668-0.047c0.395,0,0.726,0.091,0.99,0.274
		c0.264,0.183,0.487,0.398,0.668,0.646c0.181,0.25,0.306,0.516,0.372,0.798c0.066,0.285,0.099,0.524,0.099,0.725
		c0,0.296-0.033,0.655-0.099,1.071c-0.066,0.413-0.314,0.889-0.743,1.42c-0.166,0.165-0.718,0.614-1.658,1.347
		c-0.94,0.73-2.154,1.593-3.64,2.591c-1.485,0.997-3.209,2.052-5.173,3.166c-1.963,1.113-4.042,2.134-6.237,3.062
		c-2.196,0.933-4.48,1.704-6.856,2.32c-2.376,0.613-4.72,0.921-7.029,0.921c-1.981,0-3.738-0.382-5.272-1.146
		c-1.536-0.765-2.839-1.794-3.912-3.091c-1.072-1.296-1.889-2.791-2.45-4.483c-0.562-1.696-0.842-3.474-0.842-5.336
		c0-1.426,0.28-2.996,0.842-4.708c0.561-1.713,1.369-3.432,2.425-5.161c1.057-1.725,2.352-3.411,3.886-5.059
		c1.535-1.644,3.259-3.097,5.174-4.36c1.913-1.263,4.018-2.275,6.312-3.04C116.526,36.019,118.977,35.637,121.584,35.637z
		 M119.802,42.515c-0.166-0.033-0.314-0.05-0.445-0.05c-0.132,0-0.281,0-0.446,0c-1.254,0-2.425,0.25-3.514,0.748
		c-1.089,0.498-2.088,1.155-2.996,1.968c-0.908,0.816-1.715,1.738-2.425,2.768c-0.71,1.028-1.345,2.052-1.906,3.067
		c-0.562,1.013-1.032,1.986-1.411,2.914c-0.38,0.93-0.668,1.712-0.866,2.343c1.155-0.599,2.352-1.28,3.589-2.042
		c1.238-0.767,2.401-1.496,3.49-2.196c1.089-0.697,2.037-1.326,2.847-1.894c0.809-0.562,1.378-0.945,1.708-1.146
		c1.485-0.93,2.507-1.801,3.069-2.617c0.562-0.813,0.841-1.52,0.841-2.118c0-0.499-0.157-0.897-0.47-1.196
		C120.552,42.763,120.197,42.583,119.802,42.515z"/>
	<path fill="#FFFFFF" d="M156.436,35.637c2.738,0,4.785,0.666,6.139,1.994c1.353,1.33,2.029,3.173,2.029,5.533
		c0,1.396-0.364,2.858-1.088,4.386c-0.726,1.528-1.98,3.083-3.763,4.662c-1.782,1.577-4.166,3.191-7.153,4.833
		c-2.988,1.646-6.725,3.299-11.213,4.961c0.166,0.965,0.677,1.719,1.534,2.267c0.859,0.547,1.997,0.821,3.416,0.821
		c1.518,0,3.144-0.222,4.876-0.671c1.733-0.448,3.448-1.023,5.148-1.721c1.7-0.696,3.358-1.452,4.976-2.269
		c1.616-0.812,3.078-1.586,4.381-2.317c1.303-0.728,2.392-1.361,3.266-1.893c0.875-0.529,1.46-0.864,1.758-0.997
		c0.297-0.198,0.57-0.315,0.816-0.352c0.249-0.029,0.471-0.047,0.669-0.047c0.396,0,0.726,0.091,0.99,0.274
		c0.264,0.183,0.486,0.398,0.669,0.646c0.181,0.25,0.304,0.516,0.371,0.798c0.066,0.285,0.098,0.524,0.098,0.725
		c0,0.296-0.032,0.655-0.098,1.071c-0.067,0.413-0.313,0.889-0.743,1.42c-0.166,0.165-0.717,0.614-1.659,1.347
		c-0.939,0.73-2.152,1.593-3.639,2.591c-1.484,0.997-3.209,2.052-5.173,3.166c-1.963,1.113-4.042,2.134-6.238,3.062
		c-2.195,0.933-4.479,1.704-6.855,2.32c-2.376,0.613-4.72,0.921-7.03,0.921c-1.98,0-3.737-0.382-5.272-1.146
		c-1.534-0.765-2.839-1.794-3.911-3.091c-1.072-1.296-1.89-2.791-2.451-4.483c-0.562-1.696-0.841-3.474-0.841-5.336
		c0-1.426,0.28-2.996,0.841-4.708c0.561-1.713,1.37-3.432,2.426-5.161c1.056-1.725,2.352-3.411,3.886-5.059
		c1.535-1.644,3.258-3.097,5.174-4.36c1.913-1.263,4.017-2.275,6.312-3.04C151.378,36.019,153.828,35.637,156.436,35.637z
		 M154.653,42.515c-0.166-0.033-0.315-0.05-0.445-0.05c-0.132,0-0.28,0-0.446,0c-1.255,0-2.425,0.25-3.515,0.748
		c-1.089,0.498-2.089,1.155-2.996,1.968c-0.908,0.816-1.715,1.738-2.425,2.768c-0.71,1.028-1.345,2.052-1.907,3.067
		c-0.561,1.013-1.031,1.986-1.41,2.914c-0.38,0.93-0.668,1.712-0.866,2.343c1.154-0.599,2.35-1.28,3.589-2.042
		c1.238-0.767,2.401-1.496,3.49-2.196c1.089-0.697,2.037-1.326,2.847-1.894c0.809-0.562,1.378-0.945,1.708-1.146
		c1.485-0.93,2.507-1.801,3.068-2.617c0.562-0.813,0.842-1.52,0.842-2.118c0-0.499-0.157-0.897-0.47-1.196
		C155.403,42.763,155.049,42.583,154.653,42.515z"/>
	<path fill="#FFFFFF" d="M183.811,44.209c-1.221,2.394-2.376,4.728-3.465,7.004c-1.089,2.275-2.112,4.377-3.069,6.304
		c-0.396,0.797-0.784,1.72-1.164,2.766c-0.379,1.045-0.568,1.97-0.568,2.766c0,0.466,0.107,0.833,0.322,1.099
		c0.214,0.265,0.568,0.397,1.063,0.397c0.693,0,1.568-0.206,2.625-0.624c1.055-0.414,2.195-0.963,3.415-1.643
		c1.223-0.682,2.51-1.464,3.862-2.343c1.354-0.88,2.681-1.795,3.986-2.74c1.302-0.949,2.549-1.895,3.736-2.845
		c1.188-0.944,2.244-1.817,3.168-2.614c0.528-0.367,1.022-0.549,1.487-0.549c0.559,0,1.021,0.25,1.385,0.746
		c0.363,0.499,0.544,1.131,0.544,1.896c0,0.766-0.181,1.546-0.544,2.343s-1.023,1.577-1.98,2.343c-2.146,1.96-4.315,3.82-6.51,5.582
		c-2.195,1.762-4.373,3.312-6.533,4.66c-2.164,1.344-4.3,2.418-6.413,3.214c-2.111,0.8-4.157,1.196-6.138,1.196
		c-1.319,0-2.427-0.174-3.316-0.522c-0.892-0.349-1.609-0.832-2.154-1.446s-0.934-1.328-1.164-2.143s-0.347-1.687-0.347-2.616
		c0-1.661,0.281-3.391,0.843-5.185c0.56-1.795,1.187-3.406,1.881-4.835c0.989-2.06,1.971-4.103,2.945-6.13
		c0.973-2.027,1.922-3.969,2.846-5.831h-2.128c-1.849,0-3.12-0.299-3.812-0.897c-0.694-0.598-1.04-1.278-1.04-2.044
		c0-0.331,0.106-0.738,0.321-1.221c0.215-0.481,0.529-0.93,0.943-1.346c0.412-0.415,0.915-0.772,1.508-1.071
		c0.595-0.299,1.271-0.449,2.031-0.449h5.346l10.445-20.883c0.659-1.263,1.476-2.168,2.45-2.717
		c0.972-0.548,1.988-0.822,3.045-0.822c0.99,0,1.897,0.267,2.722,0.797c0.826,0.531,1.238,1.413,1.238,2.642
		c0,0.631-0.141,1.272-0.422,1.918c-0.28,0.647-0.649,1.403-1.113,2.268c-0.297,0.566-0.66,1.238-1.09,2.019
		c-0.428,0.78-0.883,1.612-1.36,2.491c-0.479,0.881-0.974,1.804-1.485,2.767c-0.512,0.965-1.014,1.895-1.509,2.792
		c-1.123,2.126-2.311,4.369-3.565,6.728h16.139c0.793,0,1.519,0.042,2.179,0.125c0.661,0.083,1.229,0.249,1.707,0.498
		c0.479,0.249,0.851,0.59,1.115,1.021c0.264,0.432,0.396,1.015,0.396,1.745c0,0.366-0.058,0.73-0.173,1.095
		c-0.116,0.367-0.33,0.698-0.646,0.998c-0.312,0.299-0.741,0.549-1.287,0.748c-0.543,0.2-1.243,0.333-2.102,0.399L183.811,44.209z"
		/>
	<path fill="#FFFFFF" d="M250.147,6.031c0.495-0.998,1.089-1.877,1.782-2.642s1.436-1.396,2.228-1.895
		c0.793-0.499,1.601-0.872,2.426-1.122C257.408,0.125,258.184,0,258.911,0c1.057,0,1.946,0.274,2.672,0.822
		c0.726,0.549,1.089,1.355,1.089,2.417c0,0.831-0.214,1.728-0.644,2.692c-1.848,3.988-3.729,8-5.643,12.038
		c-1.915,4.036-3.838,7.982-5.768,11.837c-1.932,3.854-3.819,7.567-5.669,11.139c-1.848,3.572-3.63,6.886-5.345,9.944
		c-1.718,3.057-3.327,5.798-4.827,8.222c-1.503,2.427-2.864,4.437-4.085,6.032c2.871-0.2,5.494-0.466,7.871-0.798
		c2.376-0.331,4.67-0.715,6.882-1.146c2.211-0.432,4.431-0.904,6.658-1.421s4.628-1.039,7.203-1.57
		c0.164-0.065,0.346-0.117,0.543-0.15c0.199-0.031,0.38-0.05,0.546-0.05c1.023,0,1.832,0.41,2.426,1.22
		c0.594,0.816,0.892,1.74,0.892,2.77c0,0.63-0.596,1.303-1.783,2.018c-1.188,0.714-2.814,1.419-4.875,2.119
		c-2.064,0.696-4.49,1.369-7.278,2.019c-2.789,0.645-5.8,1.211-9.034,1.693c-3.234,0.481-6.618,0.863-10.148,1.146
		c-3.531,0.282-7.046,0.425-10.545,0.425c-4.059,0-7.558-0.283-10.496-0.848c-2.936-0.566-5.354-1.347-7.251-2.343
		c-1.899-0.998-3.301-2.177-4.209-3.54c-0.907-1.362-1.361-2.839-1.361-4.435c0-1.562,0.289-2.885,0.866-3.963
		c0.579-1.08,1.37-1.953,2.376-2.617s2.194-1.146,3.564-1.443c1.37-0.301,2.847-0.449,4.432-0.449c1.288,0,2.624,0.231,4.01,0.697
		c1.387,0.466,2.747,1.071,4.085,1.82c1.336,0.745,2.605,1.576,3.811,2.492c1.204,0.911,2.253,1.833,3.145,2.765
		c0.759-1.994,1.674-4.22,2.747-6.682c1.072-2.456,2.236-5.039,3.49-7.748c1.254-2.708,2.575-5.483,3.96-8.323
		c1.387-2.842,2.773-5.641,4.159-8.399c1.385-2.758,2.739-5.416,4.059-7.975c1.32-2.558,2.542-4.901,3.663-7.028
		c1.123-2.125,2.121-4.004,2.995-5.632C248.967,8.142,249.653,6.895,250.147,6.031z M206.138,61.505c0,0.432,0.231,0.874,0.693,1.32
		c0.462,0.45,1.179,0.873,2.153,1.271c0.974,0.398,2.228,0.721,3.762,0.972c1.537,0.25,3.376,0.392,5.521,0.424
		c-0.989-0.53-1.989-1.089-2.994-1.67c-1.008-0.581-1.974-1.112-2.896-1.596c-0.925-0.48-1.767-0.88-2.524-1.196
		c-0.76-0.313-1.403-0.473-1.932-0.473C206.731,60.558,206.138,60.876,206.138,61.505z"/>
	<path fill="#FFFFFF" d="M280.939,35.687c1.254,0,2.601,0.167,4.034,0.498c1.438,0.333,2.764,0.897,3.985,1.695
		c1.222,0.798,2.236,1.852,3.045,3.165c0.809,1.312,1.214,2.933,1.214,4.86c0,0.997-0.132,2.135-0.396,3.414
		c-0.265,1.279-0.66,2.615-1.188,4.013c0.33,0.396,0.71,0.681,1.139,0.846c0.43,0.166,0.892,0.249,1.385,0.249
		c0.693,0,1.464-0.196,2.302-0.597c0.843-0.399,1.709-0.916,2.599-1.547c0.893-0.629,1.784-1.344,2.676-2.143
		c0.892-0.797,1.732-1.594,2.524-2.391c0.792-0.797,1.509-1.553,2.155-2.268c0.641-0.714,1.179-1.321,1.608-1.819
		c0.231-0.233,0.512-0.35,0.839-0.35c0.463,0,0.875,0.242,1.238,0.725c0.363,0.48,0.545,1.153,0.545,2.017
		c0,0.865-0.255,1.862-0.766,2.993c-0.513,1.128-1.464,2.308-2.848,3.536c-0.792,0.863-1.7,1.863-2.725,2.993
		c-1.021,1.128-2.11,2.19-3.266,3.188c-1.155,0.997-2.359,1.844-3.613,2.543c-1.255,0.697-2.51,1.046-3.763,1.046
		c-0.857,0-1.693-0.133-2.499-0.399c-0.811-0.266-1.627-0.698-2.451-1.295c-1.188,1.859-2.542,3.555-4.061,5.082
		c-1.518,1.529-3.21,2.84-5.073,3.938c-1.866,1.098-3.879,1.951-6.039,2.567c-2.164,0.613-4.465,0.921-6.907,0.921
		c-0.924,0-1.997-0.183-3.218-0.549c-1.222-0.363-2.384-0.972-3.49-1.82c-1.105-0.846-2.037-1.947-2.798-3.312
		c-0.758-1.361-1.138-3.021-1.138-4.985c0-1.326,0.213-2.922,0.644-4.782c0.43-1.861,1.08-3.78,1.956-5.758
		c0.873-1.977,1.98-3.937,3.316-5.882c1.337-1.942,2.929-3.688,4.777-5.232c1.848-1.545,3.96-2.792,6.336-3.738
		C275.396,36.16,278.036,35.687,280.939,35.687z M278.365,44.458c-1.551,0-3.044,0.391-4.48,1.173
		c-1.435,0.778-2.706,1.81-3.812,3.088c-1.105,1.28-1.987,2.727-2.648,4.338c-0.66,1.611-0.989,3.263-0.989,4.957
		c0,0.631,0.049,1.321,0.148,2.068c0.099,0.749,0.304,1.445,0.619,2.095c0.312,0.647,0.768,1.189,1.359,1.62
		c0.594,0.432,1.387,0.649,2.377,0.649c1.519,0,2.995-0.409,4.431-1.225c1.438-0.812,2.714-1.876,3.837-3.188
		c1.121-1.313,2.014-2.801,2.674-4.46c0.659-1.664,0.99-3.341,0.99-5.035c0-0.664-0.042-1.354-0.124-2.069
		c-0.083-0.714-0.281-1.371-0.594-1.969c-0.314-0.598-0.769-1.088-1.362-1.47C280.196,44.65,279.39,44.458,278.365,44.458z"/>
	<path fill="#FFFFFF" d="M324.355,35.687c1.453,0,2.724,0.182,3.811,0.548c1.091,0.366,2.015,0.764,2.772,1.196
		c0.859,0.531,1.619,1.114,2.281,1.745c0.456-0.298,0.953-0.581,1.48-0.848c0.463-0.231,0.976-0.44,1.536-0.622
		c0.562-0.183,1.123-0.274,1.68-0.274c1.454,0,2.576,0.299,3.371,0.896c0.793,0.598,1.188,1.314,1.188,2.144
		c0,0.433-0.114,0.865-0.345,1.296l-11.587,22.082l0.941-0.85c3.894-2.291,7.094-4.095,9.604-5.407
		c2.509-1.312,4.504-2.284,5.991-2.914c1.487-0.634,2.552-1.023,3.193-1.172c0.642-0.15,1.049-0.226,1.212-0.226
		c0.761,0,1.344,0.292,1.758,0.872c0.414,0.582,0.617,1.306,0.617,2.168c0,0.967-0.271,1.944-0.816,2.941
		c-0.545,0.995-1.377,1.712-2.5,2.144c-1.485,0.764-3.216,1.587-5.197,2.467s-4.043,1.854-6.19,2.917
		c-2.143,1.063-4.294,2.249-6.459,3.564c-2.162,1.311-4.184,2.765-6.062,4.359l-9.604,17.494c-0.792,1.895-1.509,3.438-2.153,4.637
		c-0.644,1.192-1.281,2.143-1.905,2.84c-0.627,0.696-1.271,1.18-1.933,1.445c-0.659,0.266-1.42,0.398-2.275,0.398
		c-1.287,0-2.305-0.448-3.045-1.346c-0.742-0.895-1.115-1.975-1.115-3.24c0-1.329,0.313-2.873,0.941-4.635
		c0.627-1.762,1.509-3.664,2.647-5.707c1.14-2.043,2.518-4.186,4.135-6.43c1.618-2.242,3.415-4.526,5.396-6.854l6.141-7.874
		c-1.257,1.163-2.494,2.161-3.716,2.99c-1.223,0.831-2.391,1.503-3.514,2.019c-1.124,0.517-2.17,0.891-3.145,1.122
		c-0.975,0.232-1.822,0.349-2.549,0.349c-1.322,0-2.541-0.305-3.663-0.924c-1.123-0.614-2.09-1.468-2.896-2.565
		c-0.809-1.098-1.445-2.391-1.905-3.888c-0.462-1.496-0.693-3.123-0.693-4.885c0-3.654,0.7-6.96,2.104-9.917
		c1.399-2.958,3.2-5.475,5.396-7.553c2.193-2.075,4.621-3.679,7.276-4.809C319.216,36.252,321.814,35.687,324.355,35.687z
		 M322.477,44.458c-1.553,0-3.057,0.391-4.509,1.173c-1.45,0.778-2.738,1.81-3.861,3.088c-1.119,1.28-2.011,2.75-2.671,4.412
		c-0.661,1.664-0.991,3.371-0.991,5.133c0,0.531,0.04,1.104,0.126,1.72c0.082,0.615,0.26,1.189,0.541,1.719
		c0.28,0.531,0.694,0.974,1.238,1.32c0.545,0.353,1.299,0.524,2.253,0.524c0.692,0,1.513-0.307,2.45-0.923
		c0.941-0.613,1.916-1.396,2.922-2.342c1.004-0.947,1.987-1.993,2.947-3.141c0.954-1.146,1.817-2.27,2.599-3.362
		c0.771-1.098,1.393-2.086,1.855-2.966c0.463-0.879,0.693-1.537,0.693-1.968c0-0.731-0.201-1.372-0.593-1.918
		c-0.397-0.55-0.885-1.005-1.462-1.372c-0.582-0.366-1.188-0.64-1.832-0.822C323.539,44.55,322.969,44.458,322.477,44.458z"/>
</g>
</svg>
